<?xml version="1.0" encoding="UTF-8" standalone="no"?>
<!DOCTYPE svg PUBLIC "-//W3C//DTD SVG 1.1//EN"
 "http://www.w3.org/Graphics/SVG/1.1/DTD/svg11.dtd">
<!-- Generated by graphviz version 2.38.0 (20140413.2041)
 -->
<!-- Title: G Pages: 1 -->
<svg width="843pt" height="340pt"
 viewBox="0.00 0.00 843.50 339.98" xmlns="http://www.w3.org/2000/svg" xmlns:xlink="http://www.w3.org/1999/xlink">
<g id="graph0" class="graph" transform="scale(1 1) rotate(0) translate(7.992 331.992)">
<title>G</title>
<polygon fill="#000000" stroke="none" points="-7.992,7.992 -7.992,-331.992 835.506,-331.992 835.506,7.992 -7.992,7.992"/>
<!-- config -->
<g id="node1" class="node"><title>config</title>
<ellipse fill="none" stroke="#cfffac" cx="73.6955" cy="-234" rx="34.394" ry="18"/>
<text text-anchor="middle" x="73.6955" y="-230.3" font-family="Arial" font-size="14.00" fill="#cfffac">config</text>
</g>
<!-- libs/authenticate -->
<g id="node2" class="node"><title>libs/authenticate</title>
<ellipse fill="none" stroke="#c6c5fe" cx="487.696" cy="-162" rx="74.187" ry="18"/>
<text text-anchor="middle" x="487.696" y="-158.3" font-family="Arial" font-size="14.00" fill="#c6c5fe">libs/authenticate</text>
</g>
<!-- libs/authenticate/assertPasswordIsCorrect -->
<g id="node3" class="node"><title>libs/authenticate/assertPasswordIsCorrect</title>
<ellipse fill="none" stroke="#cfffac" cx="389.696" cy="-90" rx="174.669" ry="18"/>
<text text-anchor="middle" x="389.696" y="-86.3" font-family="Arial" font-size="14.00" fill="#cfffac">libs/authenticate/assertPasswordIsCorrect</text>
</g>
<!-- libs/authenticate&#45;&gt;libs/authenticate/assertPasswordIsCorrect -->
<g id="edge1" class="edge"><title>libs/authenticate&#45;&gt;libs/authenticate/assertPasswordIsCorrect</title>
<path fill="none" stroke="#757575" d="M464.966,-144.765C452.136,-135.6 435.894,-123.999 421.785,-113.921"/>
<polygon fill="#757575" stroke="#757575" points="423.497,-110.842 413.325,-107.878 419.428,-116.539 423.497,-110.842"/>
</g>
<!-- libs/authenticate/repository -->
<g id="node4" class="node"><title>libs/authenticate/repository</title>
<ellipse fill="none" stroke="#c6c5fe" cx="697.696" cy="-90" rx="115.08" ry="18"/>
<text text-anchor="middle" x="697.696" y="-86.3" font-family="Arial" font-size="14.00" fill="#c6c5fe">libs/authenticate/repository</text>
</g>
<!-- libs/authenticate&#45;&gt;libs/authenticate/repository -->
<g id="edge2" class="edge"><title>libs/authenticate&#45;&gt;libs/authenticate/repository</title>
<path fill="none" stroke="#757575" d="M529.436,-147.087C561.471,-136.408 606.031,-121.555 641.247,-109.816"/>
<polygon fill="#757575" stroke="#757575" points="642.534,-113.077 650.914,-106.594 640.32,-106.436 642.534,-113.077"/>
</g>
<!-- libs/errors -->
<g id="node5" class="node"><title>libs/errors</title>
<ellipse fill="none" stroke="#cfffac" cx="147.696" cy="-90" rx="49.2915" ry="18"/>
<text text-anchor="middle" x="147.696" y="-86.3" font-family="Arial" font-size="14.00" fill="#cfffac">libs/errors</text>
</g>
<!-- libs/authenticate&#45;&gt;libs/errors -->
<g id="edge3" class="edge"><title>libs/authenticate&#45;&gt;libs/errors</title>
<path fill="none" stroke="#757575" d="M433.262,-149.664C423.748,-147.736 413.939,-145.782 404.696,-144 316.441,-126.981 293.167,-128.669 205.696,-108 201.842,-107.089 197.865,-106.078 193.883,-105.015"/>
<polygon fill="#757575" stroke="#757575" points="194.618,-101.587 184.047,-102.295 192.753,-108.334 194.618,-101.587"/>
</g>
<!-- libs/db -->
<g id="node6" class="node"><title>libs/db</title>
<ellipse fill="none" stroke="#cfffac" cx="768.696" cy="-18" rx="36.2938" ry="18"/>
<text text-anchor="middle" x="768.696" y="-14.3" font-family="Arial" font-size="14.00" fill="#cfffac">libs/db</text>
</g>
<!-- libs/authenticate/repository&#45;&gt;libs/db -->
<g id="edge4" class="edge"><title>libs/authenticate/repository&#45;&gt;libs/db</title>
<path fill="none" stroke="#757575" d="M714.883,-72.055C724.171,-62.8978 735.762,-51.4701 745.805,-41.5682"/>
<polygon fill="#757575" stroke="#757575" points="748.456,-43.8695 753.12,-34.3564 743.541,-38.8848 748.456,-43.8695"/>
</g>
<!-- libs/authorise -->
<g id="node7" class="node"><title>libs/authorise</title>
<ellipse fill="none" stroke="#c6c5fe" cx="333.696" cy="-162" rx="62.2891" ry="18"/>
<text text-anchor="middle" x="333.696" y="-158.3" font-family="Arial" font-size="14.00" fill="#c6c5fe">libs/authorise</text>
</g>
<!-- libs/authorise&#45;&gt;libs/errors -->
<g id="edge5" class="edge"><title>libs/authorise&#45;&gt;libs/errors</title>
<path fill="none" stroke="#757575" d="M297.391,-147.337C266.732,-135.799 222.779,-119.257 190.428,-107.082"/>
<polygon fill="#757575" stroke="#757575" points="191.38,-103.701 180.788,-103.454 188.914,-110.252 191.38,-103.701"/>
</g>
<!-- libs/getCriteria -->
<g id="node8" class="node"><title>libs/getCriteria</title>
<ellipse fill="none" stroke="#cfffac" cx="186.696" cy="-162" rx="66.8882" ry="18"/>
<text text-anchor="middle" x="186.696" y="-158.3" font-family="Arial" font-size="14.00" fill="#cfffac">libs/getCriteria</text>
</g>
<!-- libs/handleRequest -->
<g id="node9" class="node"><title>libs/handleRequest</title>
<ellipse fill="none" stroke="#c6c5fe" cx="259.696" cy="-234" rx="85.2851" ry="18"/>
<text text-anchor="middle" x="259.696" y="-230.3" font-family="Arial" font-size="14.00" fill="#c6c5fe">libs/handleRequest</text>
</g>
<!-- libs/handleRequest&#45;&gt;libs/authenticate -->
<g id="edge6" class="edge"><title>libs/handleRequest&#45;&gt;libs/authenticate</title>
<path fill="none" stroke="#757575" d="M305.835,-218.834C342.901,-207.454 395.016,-191.454 433.961,-179.497"/>
<polygon fill="#757575" stroke="#757575" points="435.029,-182.831 443.562,-176.55 432.975,-176.139 435.029,-182.831"/>
</g>
<!-- libs/handleRequest&#45;&gt;libs/db -->
<g id="edge8" class="edge"><title>libs/handleRequest&#45;&gt;libs/db</title>
<path fill="none" stroke="#757575" d="M339.434,-227.617C480.429,-216.212 764.328,-184.137 821.696,-108 838.201,-86.0943 816.228,-58.7007 795.767,-40.1332"/>
<polygon fill="#757575" stroke="#757575" points="797.933,-37.3792 788.082,-33.4791 793.351,-42.671 797.933,-37.3792"/>
</g>
<!-- libs/handleRequest&#45;&gt;libs/authorise -->
<g id="edge7" class="edge"><title>libs/handleRequest&#45;&gt;libs/authorise</title>
<path fill="none" stroke="#757575" d="M277.609,-216.055C287.017,-207.156 298.691,-196.112 308.949,-186.408"/>
<polygon fill="#757575" stroke="#757575" points="311.597,-188.722 316.457,-179.307 306.787,-183.636 311.597,-188.722"/>
</g>
<!-- libs/handleRequest&#45;&gt;libs/getCriteria -->
<g id="edge9" class="edge"><title>libs/handleRequest&#45;&gt;libs/getCriteria</title>
<path fill="none" stroke="#757575" d="M242.024,-216.055C232.878,-207.285 221.56,-196.432 211.548,-186.831"/>
<polygon fill="#757575" stroke="#757575" points="213.844,-184.184 204.204,-179.789 208.999,-189.236 213.844,-184.184"/>
</g>
<!-- libs/logger -->
<g id="node10" class="node"><title>libs/logger</title>
<ellipse fill="none" stroke="#c6c5fe" cx="50.6955" cy="-162" rx="50.8918" ry="18"/>
<text text-anchor="middle" x="50.6955" y="-158.3" font-family="Arial" font-size="14.00" fill="#c6c5fe">libs/logger</text>
</g>
<!-- libs/handleRequest&#45;&gt;libs/logger -->
<g id="edge10" class="edge"><title>libs/handleRequest&#45;&gt;libs/logger</title>
<path fill="none" stroke="#757575" d="M216.391,-218.496C181.199,-206.709 131.712,-190.135 95.9943,-178.172"/>
<polygon fill="#757575" stroke="#757575" points="96.9025,-174.785 86.3086,-174.928 94.6793,-181.423 96.9025,-174.785"/>
</g>
<!-- libs/logger&#45;&gt;libs/errors -->
<g id="edge11" class="edge"><title>libs/logger&#45;&gt;libs/errors</title>
<path fill="none" stroke="#757575" d="M72.2229,-145.465C85.6603,-135.768 103.148,-123.148 117.906,-112.498"/>
<polygon fill="#757575" stroke="#757575" points="120.167,-115.182 126.228,-106.492 116.071,-109.506 120.167,-115.182"/>
</g>
<!-- server -->
<g id="node11" class="node"><title>server</title>
<ellipse fill="none" stroke="#c6c5fe" cx="135.696" cy="-306" rx="35.9954" ry="18"/>
<text text-anchor="middle" x="135.696" y="-302.3" font-family="Arial" font-size="14.00" fill="#c6c5fe">server</text>
</g>
<!-- server&#45;&gt;config -->
<g id="edge12" class="edge"><title>server&#45;&gt;config</title>
<path fill="none" stroke="#757575" d="M121.627,-289.116C113.62,-280.076 103.44,-268.583 94.5235,-258.515"/>
<polygon fill="#757575" stroke="#757575" points="96.959,-255.986 87.7086,-250.821 91.7189,-260.628 96.959,-255.986"/>
</g>
<!-- server&#45;&gt;libs/handleRequest -->
<g id="edge13" class="edge"><title>server&#45;&gt;libs/handleRequest</title>
<path fill="none" stroke="#757575" d="M158.728,-291.998C176.543,-281.941 201.577,-267.809 222.26,-256.133"/>
<polygon fill="#757575" stroke="#757575" points="224.131,-259.096 231.118,-251.132 220.69,-253 224.131,-259.096"/>
</g>
<!-- server&#45;&gt;libs/logger -->
<g id="edge14" class="edge"><title>server&#45;&gt;libs/logger</title>
<path fill="none" stroke="#757575" d="M135.384,-287.671C134.312,-268.751 130.372,-238.194 116.696,-216 108.817,-203.214 96.7105,-192.191 85.0077,-183.56"/>
<polygon fill="#757575" stroke="#757575" points="86.8268,-180.561 76.6237,-177.707 82.8199,-186.301 86.8268,-180.561"/>
</g>
</g>
</svg>
